<?xml version="1.0" encoding="utf-8"?>
<!-- Generator: Adobe Illustrator 24.3.0, SVG Export Plug-In . SVG Version: 6.00 Build 0)  -->
<svg version="1.1" id="Calque_1" xmlns="http://www.w3.org/2000/svg" xmlns:xlink="http://www.w3.org/1999/xlink" x="0px" y="0px"
	 viewBox="0 0 591.6 302.97" style="enable-background:new 0 0 591.6 302.97;" xml:space="preserve">
<style type="text/css">
	.st0{fill:#FFFFFF;}
	.st1{fill:#E20613;}
	.st2{fill:#009EE2;}
	.st3{fill:#1D1D1B;}
</style>
<g>
	<rect x="189.03" y="282.32" class="st0" width="209.19" height="2.99"/>
</g>
<g>
	<g>
		<path class="st0" d="M0.8,271.35c-0.27,0-0.41-0.14-0.41-0.41v-21.17c0-0.27,0.14-0.41,0.41-0.41h1.98c0.27,0,0.41,0.14,0.41,0.41
			v18.94h13.37c0.27,0,0.41,0.14,0.41,0.41v1.82c0,0.27-0.14,0.41-0.41,0.41H0.8z"/>
		<path class="st0" d="M195.92,271.35c-0.27,0-0.41-0.14-0.41-0.41v-21.17c0-0.27,0.14-0.41,0.41-0.41h1.98
			c0.27,0,0.41,0.14,0.41,0.41v18.94h13.37c0.27,0,0.41,0.14,0.41,0.41v1.82c0,0.27-0.14,0.41-0.41,0.41H195.92z"/>
		<path class="st0" d="M20.59,257.75c-0.27,0-0.41-0.14-0.41-0.41v-7.6c0-0.27,0.13-0.41,0.41-0.41h1.13c0.27,0,0.41,0.14,0.41,0.41
			v7.6c0,0.27-0.14,0.41-0.41,0.41H20.59z"/>
		<path class="st0" d="M52.37,270.66c0.06,0.13,0.09,0.24,0.09,0.35c0,0.23-0.17,0.35-0.5,0.35H50.2c-0.17,0-0.3-0.03-0.41-0.09
			c-0.1-0.06-0.21-0.18-0.31-0.35l-2.92-5.06H30.32l-2.92,5.06c-0.15,0.29-0.39,0.44-0.72,0.44h-1.79c-0.31,0-0.47-0.14-0.47-0.41
			c0-0.08,0.03-0.19,0.09-0.31l12.12-20.82c0.08-0.17,0.18-0.28,0.3-0.35c0.12-0.06,0.26-0.09,0.42-0.09h2.17
			c0.17,0,0.31,0.03,0.42,0.09c0.11,0.06,0.21,0.18,0.3,0.35L52.37,270.66z M38.52,251.97h-0.16l-3.14,5.47l-3.42,5.87h13.28
			L38.52,251.97z"/>
		<path class="st0" d="M68.6,262.21v0.16l9.17,8.07c0.21,0.21,0.31,0.39,0.31,0.53c0,0.1-0.05,0.19-0.14,0.27
			c-0.1,0.07-0.23,0.11-0.39,0.11h-2.17c-0.34,0-0.62-0.1-0.85-0.31l-10.08-8.82H58.9v8.73c0,0.27-0.14,0.41-0.41,0.41h-1.98
			c-0.27,0-0.41-0.14-0.41-0.41v-21.17c0-0.27,0.14-0.41,0.41-0.41h17.37c1.78,0,3.07,0.4,3.88,1.19c0.81,0.8,1.21,2.08,1.21,3.86
			v2.7c0,1.78-0.4,3.07-1.19,3.88c-0.8,0.81-2.09,1.21-3.89,1.21H68.6z M58.9,251.78v7.98h14.51c0.96,0,1.67-0.22,2.1-0.66
			c0.44-0.44,0.66-1.13,0.66-2.07v-2.48c0-0.96-0.22-1.66-0.66-2.1c-0.44-0.44-1.14-0.66-2.1-0.66H58.9z"/>
		<path class="st0" d="M107.64,249.37c0.27,0,0.41,0.14,0.41,0.41v1.85c0,0.27-0.14,0.41-0.41,0.41H96.49v18.91
			c0,0.27-0.15,0.41-0.44,0.41H94.1c-0.27,0-0.41-0.14-0.41-0.41v-18.91H82.52c-0.27,0-0.41-0.14-0.41-0.41v-1.85
			c0-0.27,0.14-0.41,0.41-0.41H107.64z"/>
		<path class="st0" d="M148.59,255.18v10.36c0,3.87-1.94,5.81-5.81,5.81H122.9c-0.27,0-0.41-0.14-0.41-0.41v-21.17
			c0-0.27,0.14-0.41,0.41-0.41h19.88C146.66,249.37,148.59,251.3,148.59,255.18z M145.83,255.4c0-1.23-0.27-2.12-0.82-2.67
			c-0.54-0.54-1.43-0.82-2.67-0.82h-17.05v16.9h17.05c1.24,0,2.13-0.28,2.67-0.83c0.54-0.55,0.82-1.44,0.82-2.65V255.4z"/>
		<path class="st0" d="M178.33,268.9c0.27,0,0.41,0.15,0.41,0.44v1.6c0,0.27-0.14,0.41-0.41,0.41h-21.79
			c-0.27,0-0.41-0.14-0.41-0.41v-21.17c0-0.27,0.14-0.41,0.41-0.41h21.48c0.27,0,0.41,0.14,0.41,0.41v1.6
			c0,0.27-0.14,0.41-0.41,0.41h-19.09v7.29h15.17c0.27,0,0.41,0.14,0.41,0.41v1.6c0,0.27-0.14,0.41-0.41,0.41h-15.17v7.41H178.33z"
			/>
		<path class="st0" d="M245.17,270.66c0.06,0.13,0.09,0.24,0.09,0.35c0,0.23-0.17,0.35-0.5,0.35H243c-0.17,0-0.3-0.03-0.41-0.09
			c-0.1-0.06-0.21-0.18-0.31-0.35l-2.92-5.06h-16.24l-2.92,5.06c-0.15,0.29-0.39,0.44-0.72,0.44h-1.79c-0.31,0-0.47-0.14-0.47-0.41
			c0-0.08,0.03-0.19,0.09-0.31l12.12-20.82c0.08-0.17,0.18-0.28,0.3-0.35c0.12-0.06,0.26-0.09,0.42-0.09h2.17
			c0.17,0,0.31,0.03,0.43,0.09c0.11,0.06,0.21,0.18,0.3,0.35L245.17,270.66z M231.32,251.97h-0.16l-3.14,5.47l-3.42,5.87h13.28
			L231.32,251.97z"/>
		<path class="st0" d="M276.41,249.37c1.78,0,3.07,0.4,3.88,1.19c0.81,0.8,1.21,2.08,1.21,3.86v3.11c0,1.78-0.4,3.07-1.21,3.86
			c-0.81,0.8-2.1,1.19-3.88,1.19h-14.98v8.35c0,0.27-0.14,0.41-0.41,0.41h-1.98c-0.27,0-0.41-0.14-0.41-0.41v-21.17
			c0-0.27,0.14-0.41,0.41-0.41H276.41z M278.71,254.67c0-0.96-0.22-1.66-0.66-2.1c-0.44-0.44-1.14-0.66-2.1-0.66h-14.51v8.13h14.51
			c0.96,0,1.66-0.22,2.1-0.66c0.44-0.44,0.66-1.14,0.66-2.1V254.67z"/>
		<path class="st0" d="M309.99,268.9c0.27,0,0.41,0.15,0.41,0.44v1.6c0,0.27-0.14,0.41-0.41,0.41h-21.8c-0.27,0-0.41-0.14-0.41-0.41
			v-21.17c0-0.27,0.14-0.41,0.41-0.41h21.48c0.27,0,0.41,0.14,0.41,0.41v1.6c0,0.27-0.14,0.41-0.41,0.41h-19.1v7.29h15.17
			c0.27,0,0.41,0.14,0.41,0.41v1.6c0,0.27-0.14,0.41-0.41,0.41h-15.17v7.41H309.99z"/>
		<path class="st0" d="M329.02,262.21v0.16l9.17,8.07c0.21,0.21,0.31,0.39,0.31,0.53c0,0.1-0.05,0.19-0.14,0.27
			c-0.09,0.07-0.23,0.11-0.39,0.11h-2.17c-0.34,0-0.62-0.1-0.85-0.31l-10.08-8.82h-5.56v8.73c0,0.27-0.14,0.41-0.41,0.41h-1.98
			c-0.27,0-0.41-0.14-0.41-0.41v-21.17c0-0.27,0.14-0.41,0.41-0.41h17.37c1.78,0,3.07,0.4,3.88,1.19c0.81,0.8,1.21,2.08,1.21,3.86
			v2.7c0,1.78-0.4,3.07-1.19,3.88c-0.8,0.81-2.09,1.21-3.9,1.21H329.02z M319.31,251.78v7.98h14.51c0.96,0,1.67-0.22,2.1-0.66
			c0.44-0.44,0.66-1.13,0.66-2.07v-2.48c0-0.96-0.22-1.66-0.66-2.1c-0.44-0.44-1.14-0.66-2.1-0.66H319.31z"/>
		<path class="st0" d="M367.24,249.37c0.27,0,0.41,0.14,0.41,0.41v1.73c0,0.27-0.14,0.41-0.41,0.41h-18.15v7.63h14.23
			c0.27,0,0.41,0.14,0.41,0.41v1.73c0,0.27-0.14,0.41-0.41,0.41h-14.23v8.86c0,0.27-0.14,0.41-0.41,0.41h-1.98
			c-0.27,0-0.41-0.14-0.41-0.41v-21.17c0-0.27,0.14-0.41,0.41-0.41H367.24z"/>
		<path class="st0" d="M377.54,271.35c-3.87,0-5.81-1.94-5.81-5.81v-10.36c0-3.87,1.94-5.81,5.81-5.81h15.8
			c3.87,0,5.81,1.94,5.81,5.81v10.36c0,3.87-1.94,5.81-5.81,5.81H377.54z M392.87,268.81c1.23,0,2.12-0.27,2.67-0.82
			c0.54-0.54,0.82-1.43,0.82-2.67v-9.92c0-1.23-0.27-2.12-0.82-2.67c-0.55-0.54-1.43-0.82-2.67-0.82h-14.85
			c-1.24,0-2.13,0.27-2.67,0.82c-0.54,0.54-0.82,1.43-0.82,2.67v9.92c0,1.24,0.27,2.12,0.82,2.67c0.54,0.54,1.43,0.82,2.67,0.82
			H392.87z"/>
		<path class="st0" d="M419.19,262.21v0.16l9.17,8.07c0.21,0.21,0.31,0.39,0.31,0.53c0,0.1-0.05,0.19-0.14,0.27
			c-0.09,0.07-0.23,0.11-0.39,0.11h-2.17c-0.34,0-0.62-0.1-0.85-0.31l-10.08-8.82h-5.56v8.73c0,0.27-0.14,0.41-0.41,0.41h-1.98
			c-0.27,0-0.41-0.14-0.41-0.41v-21.17c0-0.27,0.14-0.41,0.41-0.41h17.37c1.78,0,3.07,0.4,3.88,1.19c0.81,0.8,1.21,2.08,1.21,3.86
			v2.7c0,1.78-0.4,3.07-1.19,3.88c-0.8,0.81-2.09,1.21-3.89,1.21H419.19z M409.48,251.78v7.98h14.51c0.96,0,1.66-0.22,2.1-0.66
			c0.44-0.44,0.66-1.13,0.66-2.07v-2.48c0-0.96-0.22-1.66-0.66-2.1c-0.44-0.44-1.14-0.66-2.1-0.66H409.48z"/>
		<path class="st0" d="M436.87,271.35c-0.27,0-0.41-0.14-0.41-0.41v-21.17c0-0.27,0.14-0.41,0.41-0.41h2.45
			c0.36,0,0.61,0.14,0.75,0.41l11.78,18.31h0.19l11.75-18.31c0.15-0.27,0.4-0.41,0.75-0.41h2.45c0.27,0,0.41,0.14,0.41,0.41v21.17
			c0,0.27-0.14,0.41-0.41,0.41h-1.95c-0.29,0-0.44-0.14-0.44-0.41V253.7h-0.16l-11.06,17.21c-0.17,0.29-0.42,0.44-0.75,0.44h-1.38
			c-0.36,0-0.62-0.15-0.78-0.44l-11.06-17.21h-0.16v17.24c0,0.27-0.14,0.41-0.41,0.41H436.87z"/>
		<path class="st0" d="M498.95,270.66c0.06,0.13,0.09,0.24,0.09,0.35c0,0.23-0.17,0.35-0.5,0.35h-1.76c-0.17,0-0.3-0.03-0.41-0.09
			c-0.11-0.06-0.21-0.18-0.31-0.35l-2.92-5.06h-16.24l-2.92,5.06c-0.15,0.29-0.39,0.44-0.72,0.44h-1.79c-0.31,0-0.47-0.14-0.47-0.41
			c0-0.08,0.03-0.19,0.09-0.31l12.12-20.82c0.08-0.17,0.18-0.28,0.3-0.35c0.11-0.06,0.26-0.09,0.42-0.09h2.17
			c0.17,0,0.31,0.03,0.42,0.09c0.12,0.06,0.21,0.18,0.3,0.35L498.95,270.66z M485.1,251.97h-0.16l-3.14,5.47l-3.42,5.87h13.28
			L485.1,251.97z"/>
		<path class="st0" d="M503.1,271.35c-0.27,0-0.41-0.14-0.41-0.41v-21.17c0-0.27,0.14-0.41,0.41-0.41h2.07
			c0.36,0,0.65,0.13,0.88,0.38l19.22,17.84h0.16v-17.81c0-0.27,0.14-0.41,0.41-0.41h1.95c0.29,0,0.44,0.14,0.44,0.41v21.17
			c0,0.27-0.15,0.41-0.44,0.41h-1.92c-0.29,0-0.57-0.13-0.82-0.38l-19.41-18h-0.16v17.96c0,0.27-0.14,0.41-0.41,0.41H503.1z"/>
		<path class="st0" d="M591.19,268.9c0.27,0,0.41,0.15,0.41,0.44v1.6c0,0.27-0.14,0.41-0.41,0.41H569.4c-0.27,0-0.41-0.14-0.41-0.41
			v-21.17c0-0.27,0.14-0.41,0.41-0.41h21.48c0.27,0,0.41,0.14,0.41,0.41v1.6c0,0.27-0.14,0.41-0.41,0.41h-19.09v7.29h15.17
			c0.27,0,0.41,0.14,0.41,0.41v1.6c0,0.27-0.14,0.41-0.41,0.41h-15.17v7.41H591.19z"/>
	</g>
	<path class="st0" d="M552.41,268.81h-10.37c-1.23,0-2.13-0.27-2.67-0.82c-0.54-0.54-0.82-1.43-0.82-2.67v-9.92
		c0-1.23,0.27-2.12,0.82-2.67c0.54-0.54,1.43-0.82,2.67-0.82h12.64h0.65h5.02c0.27,0,0.41-0.3,0.26-0.52
		c-0.94-1.34-2.53-2.02-4.8-2.02h-14.23c-3.21,0-5.81,2.6-5.81,5.81v10.36c0,3.21,2.6,5.81,5.81,5.81h14.23
		c2.28,0,3.87-0.68,4.8-2.02c0.15-0.22,0.01-0.52-0.26-0.52h-5.02H552.41z"/>
</g>
<g>
	<path class="st0" d="M468.54,17.22c1.96,0,2.55,0.94,1.78,2.82l-6.05,14.74c-0.34,0.89-0.75,1.54-1.25,1.94
		c-0.5,0.4-1.18,0.6-2.03,0.6h-41.27l-28.74,71.15c-0.34,0.89-0.76,1.54-1.25,1.94c-0.5,0.4-1.18,0.6-2.03,0.6h-15.96
		c-1.87,0-2.46-0.94-1.78-2.81l28.69-70.89H357.9c-1.87,0-2.46-0.94-1.77-2.81l5.92-14.74c0.33-0.89,0.78-1.54,1.32-1.94
		c0.54-0.4,1.24-0.6,2.09-0.6H468.54z"/>
	<path class="st0" d="M113.09,17.22c1.96,0,2.55,0.94,1.78,2.82l-6.05,14.74c-0.34,0.89-0.75,1.54-1.25,1.94
		c-0.5,0.4-1.18,0.6-2.03,0.6H64.27l-28.74,71.15c-0.34,0.89-0.76,1.54-1.25,1.94c-0.5,0.4-1.18,0.6-2.03,0.6H16.29
		c-1.87,0-2.46-0.94-1.78-2.81l28.69-70.89H2.44c-1.87,0-2.46-0.94-1.78-2.81l5.92-14.74c0.33-0.89,0.77-1.54,1.32-1.94
		c0.54-0.4,1.24-0.6,2.09-0.6H113.09z"/>
	<path class="st0" d="M216.9,21.38c-2.6-2.77-7-4.16-13.21-4.16h-72.15c-0.85,0-1.55,0.2-2.09,0.6c-0.54,0.4-0.98,1.05-1.32,1.94
		l-6.02,14.87h21.13h11.7h35.18c4.51,0,6.41,1.92,5.7,5.76c-0.17,0.9-0.48,1.88-0.93,2.95l-4.21,10.32c-1.9,4.74-4.93,7.1-9.1,7.1
		h-48.92l0.02-0.05h-21.12l-19.21,47.49c-0.69,1.88-0.1,2.81,1.78,2.81h15.83c0.85,0,1.52-0.2,2.03-0.6c0.5-0.4,0.92-1.05,1.25-1.94
		l12.37-30.28h20.32l18.68,30.82c0.77,1.34,2.26,2.01,4.48,2.01h15.32c1.02,0,1.83-0.24,2.44-0.74c0.6-0.49,0.98-1.14,1.13-1.94
		c0.16-0.89,0.01-1.7-0.45-2.41l-17.08-27.74h15.06c5.53,0,10.26-1.52,14.18-4.56c3.92-3.03,7.15-7.73,9.69-14.07l7.78-19.3
		c1.14-2.95,1.88-5.31,2.21-7.1C220.31,28.08,219.49,24.15,216.9,21.38z"/>
	<path class="st0" d="M231.13,110.42c-6.81,0-11.71-1.79-14.71-5.36c-3-3.57-3.94-8.35-2.84-14.34c0.43-2.32,1.12-4.69,2.08-7.1
		l18.52-45.56c5.88-14.29,15.16-21.44,27.84-21.44h61.68c6.89,0,11.84,1.79,14.84,5.36c3,3.57,3.94,8.35,2.84,14.34
		c-0.41,2.23-1.1,4.56-2.06,6.97L320.8,88.84c-2.94,7.15-6.76,12.53-11.48,16.15c-4.71,3.62-10.22,5.43-16.51,5.43H231.13z
		 M291.18,91.66c2.64,0,4.83-0.69,6.58-2.08c1.74-1.38,3.25-3.69,4.53-6.9l14.61-36.18c0.49-1.25,0.83-2.41,1.03-3.48
		c0.46-2.5,0.03-4.4-1.31-5.7c-1.34-1.29-3.53-1.94-6.6-1.94h-46.36c-2.64,0-4.81,0.69-6.51,2.08c-1.7,1.39-3.19,3.69-4.47,6.9
		l-14.61,36.18c-0.47,1.16-0.81,2.32-1.03,3.48c-0.46,2.5-0.03,4.4,1.31,5.69c1.33,1.3,3.53,1.94,6.6,1.94H291.18z"/>
</g>
<g>
	<path class="st1" d="M383.68,138.71c3.7,0,6.34,0.79,7.93,2.38c1.59,1.59,2.15,3.84,1.67,6.76c-0.17,1.02-0.57,2.38-1.2,4.07
		l-4.94,12.59c-1.4,3.63-3.25,6.32-5.53,8.06c-2.29,1.74-5.07,2.61-8.36,2.61h-37.37l-6.23,15.82c-0.19,0.51-0.42,0.88-0.71,1.11
		c-0.29,0.23-0.69,0.34-1.2,0.34h-9.42c-1.11,0-1.48-0.54-1.1-1.61l19.82-50.67c0.18-0.51,0.43-0.88,0.75-1.11
		c0.32-0.23,0.73-0.35,1.24-0.35H383.68z M378.78,153.83c0.25-0.61,0.42-1.18,0.5-1.69c0.36-2.2-0.8-3.3-3.49-3.3h-29.62
		l-6.35,16.12h30.91c2.48,0,4.25-1.36,5.3-4.07L378.78,153.83z"/>
	<path class="st1" d="M440.98,152.53c3.65,0,6.25,0.8,7.81,2.42c1.56,1.61,2.11,3.83,1.65,6.64c-0.18,1.13-0.54,2.35-1.06,3.69
		l-3.39,8.68c-0.19,0.51-0.44,0.88-0.75,1.11c-0.32,0.23-0.73,0.35-1.23,0.35h-40.56l-1.68,4.22c-0.25,0.61-0.42,1.2-0.52,1.77
		c-0.18,1.07,0.03,1.88,0.63,2.42c0.6,0.54,1.68,0.81,3.25,0.81h20.43c1.01,0,1.82-0.2,2.42-0.61c0.6-0.41,1.07-1.02,1.4-1.84
		l0.49-1.15c0.4-0.92,1.04-1.38,1.9-1.38h10.03c0.56,0,0.94,0.14,1.15,0.42c0.21,0.28,0.19,0.68-0.04,1.19l-1.1,2.53
		c-2.52,5.78-6.76,8.68-12.73,8.68h-31.14c-3.65,0-6.24-0.82-7.76-2.46c-1.53-1.64-2.07-3.86-1.61-6.68
		c0.19-1.18,0.54-2.4,1.06-3.69l6.54-16.81c1.31-3.38,3.16-5.94,5.55-7.68c2.38-1.74,5.17-2.61,8.36-2.61H440.98z M436.74,165.42
		c0.25-0.61,0.42-1.2,0.52-1.76c0.36-2.2-0.96-3.3-3.94-3.3h-20.43c-1.27,0-2.31,0.33-3.12,1c-0.82,0.67-1.52,1.72-2.11,3.15
		l-1.32,3.45h29.47L436.74,165.42z"/>
	<path class="st1" d="M452.61,192.45c-1.11,0-1.48-0.54-1.1-1.61l14.45-36.85c0.18-0.51,0.42-0.88,0.71-1.11
		c0.29-0.23,0.69-0.34,1.2-0.34h9.04c1.16,0,1.53,0.54,1.11,1.61l-1.69,4.3h0.61c1.38-1.95,3.03-3.42,4.94-4.42
		c1.91-1,4-1.5,6.28-1.5h15.34c1.17,0,1.53,0.54,1.1,1.61l-3,7.68c-0.19,0.51-0.42,0.88-0.71,1.11c-0.29,0.23-0.69,0.34-1.2,0.34
		h-21.57c-1.27,0-2.32,0.32-3.16,0.96c-0.84,0.64-1.55,1.68-2.14,3.11l-9.25,23.65c-0.19,0.51-0.42,0.88-0.71,1.11
		c-0.29,0.23-0.69,0.34-1.2,0.34H452.61z"/>
	<path class="st1" d="M556.33,138.71c1.17,0,1.53,0.54,1.1,1.61l-2.33,5.91c-0.18,0.51-0.42,0.88-0.71,1.11
		c-0.29,0.23-0.69,0.34-1.2,0.34h-17.62c-1.27,0-2.32,0.33-3.16,1c-0.84,0.67-1.56,1.72-2.15,3.15l-0.89,2.23h20.28
		c0.56,0,0.94,0.14,1.15,0.42c0.21,0.28,0.22,0.68,0.03,1.19l-2.45,6.14c-0.19,0.51-0.42,0.88-0.71,1.11
		c-0.29,0.23-0.69,0.34-1.2,0.34h-19.97l-10.83,27.72c-0.19,0.51-0.42,0.88-0.71,1.11c-0.29,0.23-0.69,0.34-1.2,0.34h-9.04
		c-1.11,0-1.48-0.54-1.1-1.61l10.8-27.56h-8.89c-1.11,0-1.48-0.54-1.1-1.61l2.37-6.14c0.18-0.51,0.42-0.88,0.71-1.11
		c0.29-0.23,0.69-0.35,1.2-0.35h9.34l1.97-5.07c1.31-3.38,3.16-5.94,5.55-7.68c2.38-1.74,5.17-2.61,8.36-2.61H556.33z"/>
</g>
<path class="st2" d="M254.7,175.41h34.02c0.51,0,0.92-0.12,1.23-0.35c0.32-0.23,0.57-0.6,0.75-1.11l3.39-8.68
	c0.52-1.33,0.87-2.56,1.06-3.69c0.46-2.81-0.09-5.03-1.65-6.64c-1.56-1.61-4.16-2.42-7.81-2.42h-30.91c-3.19,0-5.98,0.87-8.36,2.61
	c-2.39,1.74-4.23,4.3-5.54,7.68l-1.69,4.35l-0.31,0.8l-9.38,0.01l1.87,2.54h-25.8l29.04,8.46l-0.3,0.78
	c-0.49,1.24-0.83,2.42-1.01,3.56c-0.46,2.82,0.07,5.04,1.6,6.68c1.53,1.64,4.12,2.46,7.76,2.46h31.14c5.97,0,10.22-2.89,12.73-8.68
	l1.1-2.53c0.24-0.51,0.25-0.91,0.04-1.19c-0.21-0.28-0.59-0.42-1.15-0.42h-10.03c-0.86,0-1.49,0.46-1.9,1.38l-0.49,1.15
	c-0.34,0.82-0.8,1.43-1.4,1.84c-0.6,0.41-1.41,0.61-2.42,0.61h-20.43c-1.57,0-2.65-0.27-3.25-0.81c-0.6-0.54-0.81-1.34-0.63-2.42
	c0.09-0.56,0.27-1.15,0.52-1.77l1.68-4.22H254.7z M281.99,163.66c-0.09,0.56-0.26,1.15-0.52,1.76l-0.95,2.53h-25.34l0,0l-4.13,0
	l0.31-0.8l1.02-2.66c0.59-1.43,1.29-2.48,2.11-3.15c0.82-0.66,1.86-1,3.13-1h20.43C281.03,160.36,282.35,161.46,281.99,163.66z"/>
<g>
	<path class="st1" d="M564.36,17.22H486.4c-0.85,0-1.55,0.2-2.09,0.6c-0.54,0.4-0.98,1.05-1.32,1.94l-5.92,14.74
		c-0.69,1.88-0.1,2.81,1.77,2.81h40.76l-28.69,70.89c-0.69,1.88-0.09,2.81,1.78,2.81h15.96c0.85,0,1.53-0.2,2.03-0.6
		c0.5-0.4,0.92-1.05,1.25-1.94l28.74-71.15h15.55L564.36,17.22z"/>
	<path class="st1" d="M589.5,17.22h-10.45l-8.14,20.1h11.04c0.85,0,1.52-0.2,2.03-0.6c0.5-0.4,0.92-1.05,1.25-1.94l6.05-14.74
		C592.04,18.16,591.45,17.22,589.5,17.22z"/>
</g>
<path class="st3" d="M47.47,182.89L47.47,182.89c24.64,11.46,47.95,9.51,71.89,7.11c1.72-0.17,3.43-0.41,5.13-0.69
	c6.12-1.01,12.25-1.91,18.38-2.39c8.79-0.69,17.59-0.49,26.38,1.55c0.01,0,0.01,0,0.01-0.01c7.12-16.23,14.18-32.49,21.31-48.72
	C135.79,131.28,100.85,187.19,47.47,182.89z"/>
<g>
	<path class="st0" d="M70.02,181.25c-1.38,0.31-2.76,0.57-4.16,0.81c-1.82,2.37-3.09,3.91-4.88,5.86c5.07,1.46,10.1,2.44,15.11,3.04
		c1.96-2.92,3.35-5.13,5.66-9.03C76.95,182.02,74.07,181.91,70.02,181.25z"/>
	<path class="st0" d="M84.79,176.72c-0.9,1.6-1.85,3.21-3.04,5.22c6.96-0.11,10.44-0.58,17.4-1.8c2.57-5.16,3.98-8.12,6.33-13.21
		C98.69,170.57,91.84,173.98,84.79,176.72z"/>
	<path class="st0" d="M93.09,191.82c6.2-0.08,12.39-0.52,18.61-1.08c2.6-5.49,4.03-8.63,6.74-14.76
		c-7.72,1.83-11.58,2.82-19.31,4.16C96.68,185.1,95.28,187.81,93.09,191.82z"/>
	<path class="st0" d="M142.87,186.92c2.36-0.19,4.72-0.3,7.08-0.34c2.63-6.16,4.39-10.33,7.11-16.84
		c-7.72,0.05-11.58,0.61-19.31,2.01c-2.83,6.76-4.28,10.16-7.11,16.61C134.72,187.76,138.8,187.24,142.87,186.92z"/>
	<path class="st0" d="M111.12,163.86c4.86-1.43,8.52-2.61,14.44-4.38c0.72-1.73,1.35-3.24,1.94-4.65
		C122.01,157.76,116.57,160.85,111.12,163.86z"/>
	<path class="st0" d="M164.17,152.55c2.18-5.31,3.52-8.62,5.31-13.02c-7.19,0.95-14.08,2.87-20.78,5.4
		c-1.16,2.93-2.29,5.73-3.84,9.56C152.58,152.94,156.44,152.4,164.17,152.55z"/>
	<path class="st0" d="M125.56,159.48c-2.84,6.78-4.26,10.09-7.1,16.5c7.72-1.83,11.58-2.83,19.31-4.23
		c2.84-6.78,4.26-10.24,7.1-17.27C137.14,156.02,133.28,157.18,125.56,159.48z"/>
	<path class="st0" d="M157.06,169.74c7.72-0.06,11.58,0.29,19.3,2.5c1.17-2.67,2.34-5.34,3.5-8.02c1.08-2.48,2.16-4.95,3.61-8.26
		c-7.72-2.74-11.58-3.27-19.31-3.41C161.33,159.48,159.9,162.93,157.06,169.74z"/>
</g>
<rect x="0.39" y="282.32" class="st2" width="189.17" height="2.99"/>
<rect x="397.72" y="282.32" class="st1" width="193.88" height="2.99"/>
</svg>
